<svg width="30" height="30" viewBox="0 0 30 30" fill="none" xmlns="http://www.w3.org/2000/svg">
<path d="M15.7687 22.6969C15.6046 22.6956 15.4424 22.6614 15.2918 22.5961C15.1412 22.5309 15.0053 22.436 14.8921 22.3172C12.8671 20.1938 8.16089 14.8172 8.16089 10.9359C8.16089 5.15626 12.7171 3.06094 15.7781 3.06094C18.839 3.06094 23.0156 5.50313 23.0156 10.9359C23.0156 14.9391 18.5765 20.2172 16.664 22.2984C16.5526 22.4217 16.4166 22.5204 16.2649 22.5882C16.1132 22.656 15.949 22.6914 15.7828 22.6922L15.7687 22.6969ZM15.7687 3.99844C13.0828 3.99844 9.08901 5.84532 9.08901 10.9359C9.08901 14.5969 14.0437 20.0766 15.5625 21.6703C15.588 21.6984 15.6191 21.7208 15.6538 21.7362C15.6885 21.7515 15.7261 21.7594 15.764 21.7594C15.8408 21.7556 15.9132 21.7219 15.9656 21.6656C17.3953 20.1047 22.0593 14.7141 22.0593 10.9359C22.0781 6.15001 18.3937 3.99844 15.7781 3.99844H15.7687Z" fill="#363636"/>
<path d="M15.5906 14.1938C14.8072 14.1938 14.0414 13.9615 13.39 13.5262C12.7386 13.091 12.2309 12.4724 11.9311 11.7486C11.6314 11.0248 11.5529 10.2284 11.7057 9.46008C11.8586 8.69173 12.2358 7.98596 12.7898 7.43201C13.3437 6.87807 14.0495 6.50082 14.8178 6.34799C15.5862 6.19516 16.3826 6.2736 17.1064 6.57339C17.8301 6.87319 18.4487 7.38087 18.884 8.03224C19.3192 8.68361 19.5515 9.44942 19.5515 10.2328C19.549 11.2826 19.1309 12.2886 18.3886 13.0309C17.6464 13.7732 16.6403 14.1913 15.5906 14.1938ZM15.5906 7.20938C14.9926 7.20938 14.408 7.3867 13.9108 7.71892C13.4136 8.05114 13.0261 8.52334 12.7973 9.0758C12.5684 9.62826 12.5086 10.2362 12.6252 10.8227C12.7419 11.4092 13.0298 11.9479 13.4527 12.3707C13.8755 12.7935 14.4142 13.0815 15.0007 13.1982C15.5872 13.3148 16.1951 13.2549 16.7476 13.0261C17.3001 12.7973 17.7723 12.4098 18.1045 11.9126C18.4367 11.4154 18.614 10.8308 18.614 10.2328C18.6128 9.43134 18.2938 8.66303 17.7271 8.0963C17.1604 7.52956 16.3921 7.21062 15.5906 7.20938Z" fill="#363636"/>
<path d="M26.0156 25.8609H5.15625C5.07321 25.8606 4.99175 25.8382 4.92021 25.796C4.84867 25.7539 4.78961 25.6935 4.74908 25.621C4.70855 25.5485 4.688 25.4666 4.68953 25.3835C4.69107 25.3005 4.71463 25.2194 4.75782 25.1484L8.4375 19.2188C8.47972 19.1512 8.53846 19.0955 8.60818 19.057C8.67789 19.0184 8.75628 18.9983 8.83594 18.9984H12.9844C13.1087 18.9984 13.2279 19.0478 13.3158 19.1357C13.4037 19.2236 13.4531 19.3429 13.4531 19.4672C13.4531 19.5915 13.4037 19.7107 13.3158 19.7986C13.2279 19.8866 13.1087 19.9359 12.9844 19.9359H9.07969L6 24.9234H25.1859L22.1813 19.9219H18.4594C18.3351 19.9219 18.2158 19.8725 18.1279 19.7846C18.04 19.6967 17.9906 19.5774 17.9906 19.4531C17.9906 19.3288 18.04 19.2096 18.1279 19.1217C18.2158 19.0338 18.3351 18.9844 18.4594 18.9844H22.4484C22.5285 18.9847 22.6072 19.0056 22.677 19.045C22.7467 19.0843 22.8052 19.141 22.8469 19.2094L26.4188 25.1531C26.4609 25.2243 26.4836 25.3054 26.4843 25.3881C26.485 25.4708 26.4638 25.5523 26.4229 25.6242C26.3819 25.6961 26.3227 25.7558 26.2511 25.7974C26.1796 25.839 26.0984 25.8609 26.0156 25.8609Z" fill="#363636"/>
</svg>
