<svg width="30" height="30" viewBox="0 0 30 30" fill="none" xmlns="http://www.w3.org/2000/svg">
<path d="M24.7969 24.1828H5.20312C4.58152 24.1828 3.98538 23.9359 3.54584 23.4963C3.10631 23.0568 2.85938 22.4607 2.85938 21.8391V8.15155C2.85938 7.52995 3.10631 6.93381 3.54584 6.49427C3.98538 6.05473 4.58152 5.8078 5.20312 5.8078H24.7969C25.4185 5.8078 26.0146 6.05473 26.4542 6.49427C26.8937 6.93381 27.1406 7.52995 27.1406 8.15155V21.8391C27.1406 22.4607 26.8937 23.0568 26.4542 23.4963C26.0146 23.9359 25.4185 24.1828 24.7969 24.1828ZM5.20312 6.7453C4.83016 6.7453 4.47248 6.89346 4.20876 7.15718C3.94503 7.4209 3.79688 7.77859 3.79688 8.15155V21.8391C3.79688 22.212 3.94503 22.5697 4.20876 22.8334C4.47248 23.0971 4.83016 23.2453 5.20312 23.2453H24.7969C25.1698 23.2453 25.5275 23.0971 25.7912 22.8334C26.055 22.5697 26.2031 22.212 26.2031 21.8391V8.15155C26.2031 7.77859 26.055 7.4209 25.7912 7.15718C25.5275 6.89346 25.1698 6.7453 24.7969 6.7453H5.20312Z" fill="#363636"/>
<path d="M15.4687 15.2016C15.2717 15.2013 15.0798 15.1389 14.9203 15.0234L3.87183 6.98436C3.81914 6.9495 3.77405 6.90436 3.73926 6.85163C3.70446 6.7989 3.68068 6.73969 3.66935 6.67754C3.65802 6.61539 3.65936 6.5516 3.6733 6.48998C3.68725 6.42837 3.7135 6.37021 3.75049 6.319C3.78747 6.26778 3.83443 6.22458 3.88854 6.19197C3.94264 6.15936 4.00278 6.13803 4.06534 6.12924C4.1279 6.12046 4.19159 6.12442 4.25258 6.14087C4.31357 6.15733 4.37061 6.18594 4.42026 6.22499L15.4687 14.2641L25.7812 6.39374C25.8301 6.35619 25.886 6.32865 25.9456 6.31268C26.0052 6.29672 26.0673 6.29265 26.1285 6.3007C26.1896 6.30875 26.2486 6.32877 26.302 6.35961C26.3554 6.39046 26.4022 6.43152 26.4398 6.48046C26.4773 6.5294 26.5049 6.58525 26.5209 6.64483C26.5368 6.70442 26.5409 6.76656 26.5328 6.82772C26.5248 6.88887 26.5048 6.94784 26.4739 7.00126C26.4431 7.05468 26.402 7.1015 26.3531 7.13905L16.05 15C15.8844 15.1306 15.6796 15.2017 15.4687 15.2016Z" fill="#363636"/>
</svg>
