<svg width="30" height="30" viewBox="0 0 30 30" fill="none" xmlns="http://www.w3.org/2000/svg">
<path fill-rule="evenodd" clip-rule="evenodd" d="M25.3229 21.675C25.2886 22.1534 25.1497 22.6183 24.9159 23.037L19.0112 19.199L20.1209 17.8972C20.174 17.8338 20.2487 17.7921 20.3306 17.7802C20.4125 17.7682 20.4959 17.7869 20.565 17.8326L24.7844 20.5739C24.9678 20.689 25.1154 20.8532 25.2106 21.0477C25.3057 21.2423 25.3446 21.4596 25.3229 21.675ZM22.3539 24.8853C23.1713 24.6451 23.9137 24.2 24.5106 23.5921L18.5635 19.726L18.0447 20.336C17.9013 20.5061 17.7063 20.6246 17.4893 20.6735C17.2723 20.7224 17.0452 20.699 16.8428 20.6068C13.4612 19.0718 10.7515 16.3619 9.21669 12.9802C9.12427 12.7782 9.10047 12.5515 9.14893 12.3346C9.19739 12.1178 9.31544 11.9228 9.48508 11.7793L10.0951 11.2601L6.22993 5.31241C5.62329 5.9102 5.17913 6.65282 4.93943 7.47007C4.79736 7.87431 4.7299 8.30099 4.74033 8.72933C4.86916 17.3129 12.5111 24.9551 21.0959 25.0837C21.5238 25.0947 21.9502 25.0278 22.3542 24.886L22.3539 24.8853ZM8.14945 4.50088C8.18556 4.49795 8.22265 4.496 8.25998 4.496C8.45759 4.49455 8.65227 4.54381 8.82541 4.63907C8.99855 4.73433 9.14435 4.87241 9.2489 5.04011L11.9907 9.25954C12.0367 9.32836 12.0556 9.41178 12.0437 9.4937C12.0318 9.57563 11.9899 9.65023 11.9263 9.70312L10.6238 10.8114L6.78697 4.90811C7.20568 4.67363 7.671 4.53449 8.14969 4.50064L8.14945 4.50088ZM25.1582 19.9988L20.9388 17.2572C20.7294 17.1216 20.4779 17.0667 20.2311 17.1026C19.9842 17.1385 19.7588 17.2628 19.5968 17.4524L17.5204 19.8924C17.4733 19.9492 17.4087 19.9889 17.3367 20.0052C17.2647 20.0215 17.1894 20.0135 17.1224 19.9824C13.8944 18.5158 11.3076 15.9283 9.84181 12.6999C9.81079 12.6329 9.80285 12.5575 9.81922 12.4855C9.8356 12.4135 9.87538 12.3489 9.93233 12.3019L12.3703 10.2272C12.5599 10.0655 12.6844 9.84051 12.7206 9.59399C12.7569 9.34747 12.7025 9.09616 12.5675 8.88671L9.8257 4.66607C9.64244 4.3789 9.38362 4.14776 9.07764 3.99802C8.77165 3.84828 8.43033 3.78572 8.09113 3.8172C6.28605 3.96897 5.00775 5.12356 4.28821 7.25047C4.12253 7.72879 4.04329 8.23277 4.05422 8.73885C4.09366 10.9607 4.59 13.1507 5.51234 15.1725C6.42067 17.1846 7.68906 19.0137 9.255 20.5697C10.811 22.1354 12.64 23.4034 14.6519 24.3114C16.6737 25.2333 18.8635 25.7297 21.0852 25.7698H21.1615C21.6424 25.7725 22.1202 25.6933 22.5745 25.5358C24.6992 24.8165 25.8548 23.5367 26.0056 21.7326C26.0377 21.3936 25.9756 21.0523 25.8261 20.7464C25.6765 20.4404 25.4454 20.1817 25.1582 19.9988Z" fill="#363636" stroke="#363636" stroke-width="0.2"/>
</svg>
