<svg width="30" height="30" viewBox="0 0 30 30" fill="none" xmlns="http://www.w3.org/2000/svg">
<path d="M10.5 4C6.91624 4 4 6.91624 4 10.5V19.5C4 23.0838 6.91624 26 10.5 26H19.5C23.0838 26 26 23.0838 26 19.5V10.5C26 6.91624 23.0838 4 19.5 4H10.5ZM10.5 5H19.5C22.5432 5 25 7.45676 25 10.5V19.5C25 22.5432 22.5432 25 19.5 25H10.5C7.45676 25 5 22.5432 5 19.5V10.5C5 7.45676 7.45676 5 10.5 5ZM21 8C20.7348 8 20.4804 8.10536 20.2929 8.29289C20.1054 8.48043 20 8.73478 20 9C20 9.26522 20.1054 9.51957 20.2929 9.70711C20.4804 9.89464 20.7348 10 21 10C21.2652 10 21.5196 9.89464 21.7071 9.70711C21.8946 9.51957 22 9.26522 22 9C22 8.73478 21.8946 8.48043 21.7071 8.29289C21.5196 8.10536 21.2652 8 21 8ZM15 9.5C11.9684 9.5 9.5 11.9684 9.5 15C9.5 18.0316 11.9684 20.5 15 20.5C18.0316 20.5 20.5 18.0316 20.5 15C20.5 11.9684 18.0316 9.5 15 9.5ZM15 10.5C17.4912 10.5 19.5 12.5088 19.5 15C19.5 17.4912 17.4912 19.5 15 19.5C12.5088 19.5 10.5 17.4912 10.5 15C10.5 12.5088 12.5088 10.5 15 10.5Z" fill="#363636"/>
</svg>
